<svg width="11" height="11" viewBox="0 0 11 11" fill="none" xmlns="http://www.w3.org/2000/svg">
<path d="M1.83331 3.41667C1.69524 3.41667 1.58331 3.5286 1.58331 3.66667C1.58331 3.80474 1.69524 3.91667 1.83331 3.91667V3.41667ZM9.16665 3.91667C9.30472 3.91667 9.41665 3.80474 9.41665 3.66667C9.41665 3.5286 9.30472 3.41667 9.16665 3.41667V3.91667ZM2.33372 9.06674L2.44722 8.84399L2.33372 9.06674ZM1.93322 8.66618L1.71047 8.77968L1.93322 8.66618ZM9.06683 8.66618L8.84408 8.55268L9.06683 8.66618ZM8.66605 9.06674L8.55255 8.84399L8.66605 9.06674ZM8.66605 1.93324L8.77955 1.71049L8.66605 1.93324ZM9.06683 2.33385L8.84408 2.44735L9.06683 2.33385ZM2.33372 1.93324L2.44722 2.156L2.33372 1.93324ZM1.93322 2.33385L2.15598 2.44735L1.93322 2.33385ZM7.33331 5.75C7.47138 5.75 7.58331 5.63807 7.58331 5.5C7.58331 5.36193 7.47138 5.25 7.33331 5.25V5.75ZM3.66665 5.25C3.52858 5.25 3.41665 5.36193 3.41665 5.5C3.41665 5.63807 3.52858 5.75 3.66665 5.75V5.25ZM7.58331 0.916667C7.58331 0.778596 7.47138 0.666667 7.33331 0.666667C7.19524 0.666667 7.08331 0.778596 7.08331 0.916667H7.58331ZM7.08331 1.83333C7.08331 1.9714 7.19524 2.08333 7.33331 2.08333C7.47138 2.08333 7.58331 1.9714 7.58331 1.83333H7.08331ZM3.91665 0.916667C3.91665 0.778596 3.80472 0.666667 3.66665 0.666667C3.52858 0.666667 3.41665 0.778596 3.41665 0.916667H3.91665ZM3.41665 1.83333C3.41665 1.9714 3.52858 2.08333 3.66665 2.08333C3.80472 2.08333 3.91665 1.9714 3.91665 1.83333H3.41665ZM1.83331 3.91667H9.16665V3.41667H1.83331V3.91667ZM3.30007 2.08333H7.70007V1.58333H3.30007V2.08333ZM8.91665 3.29998V7.69998H9.41665V3.29998H8.91665ZM7.70007 8.91667H3.30007V9.41667H7.70007V8.91667ZM2.08331 7.69998V3.29998H1.58331V7.69998H2.08331ZM3.30007 8.91667C3.03926 8.91667 2.85863 8.91647 2.71827 8.905C2.5808 8.89377 2.50413 8.87299 2.44722 8.84399L2.22022 9.28949C2.35939 9.3604 2.50921 9.38959 2.67755 9.40334C2.843 9.41686 3.0475 9.41667 3.30007 9.41667V8.91667ZM1.58331 7.69998C1.58331 7.95254 1.58312 8.15701 1.59663 8.32242C1.61038 8.49074 1.63956 8.64051 1.71047 8.77968L2.15598 8.55268C2.12697 8.49576 2.1062 8.41912 2.09497 8.28171C2.08351 8.14138 2.08331 7.96079 2.08331 7.69998H1.58331ZM2.44722 8.84399C2.32181 8.78009 2.21991 8.67816 2.15598 8.55268L1.71047 8.77968C1.82231 8.99916 2.00066 9.17762 2.22022 9.28949L2.44722 8.84399ZM8.91665 7.69998C8.91665 7.96082 8.91648 8.14141 8.90503 8.28175C8.89383 8.41917 8.87307 8.49579 8.84408 8.55268L9.28959 8.77968C9.36051 8.64049 9.38966 8.49069 9.40338 8.32238C9.41687 8.15699 9.41665 7.95252 9.41665 7.69998H8.91665ZM7.70007 9.41667C7.95264 9.41667 8.15705 9.41686 8.32241 9.40334C8.49071 9.38958 8.6404 9.36039 8.77955 9.28949L8.55255 8.84399C8.49561 8.873 8.419 8.89378 8.28167 8.905C8.14141 8.91647 7.96088 8.91667 7.70007 8.91667V9.41667ZM8.84408 8.55268C8.78023 8.67799 8.67812 8.78001 8.55255 8.84399L8.77955 9.28949C8.99894 9.17771 9.17767 8.99933 9.28959 8.77968L8.84408 8.55268ZM7.70007 2.08333C7.96089 2.08333 8.14142 2.08353 8.28168 2.09499C8.41901 2.10622 8.49561 2.12698 8.55255 2.156L8.77955 1.71049C8.6404 1.63959 8.4907 1.61041 8.32241 1.59665C8.15705 1.58314 7.95263 1.58333 7.70007 1.58333V2.08333ZM9.41665 3.29998C9.41665 3.04744 9.41687 2.84298 9.40338 2.67761C9.38966 2.50931 9.3605 2.35954 9.28959 2.22035L8.84408 2.44735C8.87307 2.50425 8.89383 2.58085 8.90503 2.71825C8.91648 2.85857 8.91665 3.03914 8.91665 3.29998H9.41665ZM8.55255 2.156C8.67809 2.21996 8.78022 2.32201 8.84408 2.44735L9.28959 2.22035C9.17768 2.00073 8.99897 1.82229 8.77955 1.71049L8.55255 2.156ZM3.30007 1.58333C3.0475 1.58333 2.843 1.58314 2.67756 1.59665C2.50921 1.6104 2.3594 1.63958 2.22022 1.71049L2.44722 2.156C2.50413 2.127 2.5808 2.10622 2.71826 2.09499C2.85863 2.08353 3.03926 2.08333 3.30007 2.08333V1.58333ZM2.08331 3.29998C2.08331 3.03916 2.08351 2.85859 2.09497 2.71829C2.1062 2.5809 2.12697 2.50428 2.15598 2.44735L1.71047 2.22035C1.63957 2.35951 1.61038 2.50926 1.59663 2.67757C1.58312 2.84296 1.58331 3.04741 1.58331 3.29998H2.08331ZM2.22022 1.71049C2.00064 1.82238 1.82229 2.0009 1.71047 2.22035L2.15598 2.44735C2.21992 2.32184 2.32184 2.21988 2.44722 2.156L2.22022 1.71049ZM7.33331 5.25H3.66665V5.75H7.33331V5.25ZM7.08331 0.916667V1.83333H7.58331V0.916667H7.08331ZM3.41665 0.916667V1.83333H3.91665V0.916667H3.41665Z" fill="#63CADF"/>
</svg>
