<svg width="13" height="13" viewBox="0 0 13 13" fill="none" xmlns="http://www.w3.org/2000/svg">
<path d="M6.5 0C2.90977 0 0 2.90977 0 6.5C0 10.0902 2.90977 13 6.5 13C10.0902 13 13 10.0902 13 6.5C13 2.90977 10.0902 0 6.5 0ZM10.5574 10.5549C10.0293 11.083 9.41738 11.4969 8.73438 11.7838C8.02852 12.0834 7.27695 12.2332 6.5 12.2332C5.72559 12.2332 4.97402 12.0809 4.26562 11.7838C3.58262 11.4943 2.96816 11.0805 2.44258 10.5549C1.91445 10.0268 1.50059 9.41484 1.21367 8.73184C0.914063 8.02598 0.761719 7.27441 0.761719 6.5C0.761719 5.72559 0.914062 4.97402 1.21113 4.26562C1.50059 3.58262 1.91445 2.96816 2.44004 2.44258C2.9707 1.91445 3.58262 1.50059 4.26562 1.21113C4.97402 0.914062 5.72559 0.761719 6.5 0.761719C7.27441 0.761719 8.02598 0.914062 8.73438 1.21113C9.41738 1.50059 10.0318 1.91445 10.5574 2.44004C11.0855 2.96816 11.4994 3.58008 11.7863 4.26309C12.0859 4.96895 12.2357 5.72051 12.2357 6.49746C12.2357 7.27187 12.0834 8.02344 11.7863 8.73184C11.4969 9.41484 11.083 10.0293 10.5574 10.5549Z" fill="#FFAC50"/>
<path d="M7.35819 4.28341C7.61971 4.28341 7.89901 4.36465 7.89901 4.36465L8.06659 3.36934C8.06659 3.36934 7.71112 3.24747 6.86307 3.24747C6.34257 3.24747 6.04042 3.44551 5.81952 3.73751C5.61132 4.01426 5.6037 4.4586 5.6037 4.74551V5.39805H4.93085V6.37051H5.6037V9.74747H6.86307V6.37051H7.86093L7.93456 5.39805H6.86307V4.63887C6.86307 4.37735 7.09667 4.28341 7.35819 4.28341Z" fill="#FFAC50"/>
</svg>
