<svg width="13" height="13" viewBox="0 0 13 13" fill="none" xmlns="http://www.w3.org/2000/svg">
<path d="M10.5991 3.04505C10.5991 3.3964 10.3063 3.65991 9.98423 3.65991C9.63288 3.65991 9.36937 3.36712 9.36937 3.04505C9.36937 2.69369 9.66216 2.43018 9.98423 2.43018C10.3063 2.4009 10.5991 2.69369 10.5991 3.04505ZM13 3.30856V9.69144C13 11.5068 11.5068 13 9.69144 13H3.30856C1.49324 13 0 11.5068 0 9.69144V3.30856C0 1.49324 1.49324 0 3.30856 0H9.69144C11.536 0 13 1.49324 13 3.30856ZM11.7703 3.30856C11.7703 2.16667 10.8333 1.22973 9.69144 1.22973H3.30856C2.16667 1.22973 1.22973 2.16667 1.22973 3.30856V9.69144C1.22973 10.8333 2.16667 11.7703 3.30856 11.7703H9.69144C10.8626 11.7703 11.7996 10.8333 11.7996 9.69144L11.7703 3.30856ZM9.8964 6.5C9.8964 4.62613 8.37387 3.1036 6.5 3.1036C4.62613 3.1036 3.1036 4.62613 3.1036 6.5C3.1036 8.37387 4.62613 9.8964 6.5 9.8964C8.37387 9.8964 9.8964 8.37387 9.8964 6.5ZM8.66667 6.5C8.66667 7.70045 7.70045 8.66667 6.5 8.66667C5.29955 8.66667 4.33333 7.70045 4.33333 6.5C4.33333 5.29955 5.29955 4.33333 6.5 4.33333C7.70045 4.33333 8.66667 5.29955 8.66667 6.5Z" fill="#FFAC50"/>
</svg>
