<svg width="19" height="21" viewBox="0 0 19 21" fill="none" xmlns="http://www.w3.org/2000/svg">
<path d="M2.23018 12.9781L2.60346 12.6048C2.7239 12.4843 2.79171 12.321 2.79171 12.1507V8.58333C2.79171 4.87843 5.79514 1.87501 9.50004 1.875C13.205 1.87499 16.2084 4.87842 16.2084 8.58333V12.1506C16.2084 12.321 16.276 12.4843 16.3965 12.6048L16.7698 12.9781C16.8841 13.0924 16.9414 13.1496 16.987 13.213C17.0731 13.3329 17.1302 13.4711 17.1541 13.6168C17.1667 13.6939 17.1669 13.7747 17.1669 13.9364C17.1669 14.3059 17.1669 14.4906 17.1166 14.6397C17.021 14.9232 16.7984 15.1457 16.5148 15.2414C16.3658 15.2916 16.1808 15.2917 15.8113 15.2917H3.18852C2.81904 15.2917 2.63423 15.2916 2.48521 15.2414C2.20167 15.1457 1.97928 14.9232 1.88364 14.6397C1.83337 14.4906 1.83337 14.3059 1.83337 13.9364C1.83337 13.7747 1.83337 13.6939 1.84602 13.6168C1.86993 13.4711 1.92696 13.3329 2.01306 13.213C2.05862 13.1496 2.11585 13.0924 2.23018 12.9781ZM12.375 15.2917V16.25C12.375 17.8378 11.0879 19.125 9.50004 19.125C7.91222 19.125 6.62504 17.8378 6.62504 16.25V15.2917H12.375Z" stroke="white" stroke-width="2" stroke-linecap="round" stroke-linejoin="round"/>
</svg>
