<svg width="13" height="13" viewBox="0 0 13 13" fill="none" xmlns="http://www.w3.org/2000/svg">
<g clip-path="url(#clip0_1_339)">
<path fill-rule="evenodd" clip-rule="evenodd" d="M9.43285 7.79036C9.27187 7.70976 8.48055 7.32046 8.333 7.26662C8.1855 7.21294 8.0782 7.18613 7.97084 7.34722C7.86354 7.50831 7.55506 7.8709 7.46119 7.97837C7.36732 8.08573 7.27339 8.09922 7.11246 8.01862C6.95148 7.93807 6.43283 7.7681 5.8181 7.21971C5.33958 6.79288 5.01653 6.26584 4.92266 6.10469C4.82875 5.94355 4.91261 5.85645 4.9932 5.77617C5.06564 5.70408 5.15421 5.58816 5.23466 5.49418C5.31514 5.40021 5.34196 5.33302 5.39562 5.22568C5.44927 5.1182 5.42246 5.02425 5.38218 4.94369C5.34197 4.86313 5.02005 4.07083 4.88592 3.74852C4.75526 3.43469 4.62257 3.4772 4.52377 3.47221C4.42999 3.46756 4.32257 3.46656 4.21529 3.46656C4.10798 3.46656 3.93359 3.50685 3.78602 3.66794C3.63852 3.82909 3.22269 4.21853 3.22269 5.01074C3.22269 5.80304 3.79943 6.56841 3.87994 6.67583C3.96044 6.78329 5.01491 8.40905 6.62962 9.10628C7.01361 9.27214 7.31342 9.37116 7.5472 9.44531C7.93276 9.56784 8.28365 9.55056 8.56104 9.50907C8.87028 9.46292 9.51334 9.11972 9.64746 8.7438C9.78158 8.36772 9.78158 8.04548 9.74133 7.97837C9.70109 7.9112 9.59378 7.8709 9.43285 7.79036ZM6.49594 11.8004H6.49382C5.53302 11.8 4.59072 11.5419 3.76865 11.0541L3.57313 10.938L1.54668 11.4696L2.08756 9.49379L1.96029 9.29121C1.42432 8.43873 1.14123 7.4535 1.14164 6.44177C1.14282 3.48973 3.54475 1.08799 6.4981 1.08799C7.92821 1.0885 9.27252 1.64615 10.2835 2.65823C11.2943 3.67024 11.8507 5.01547 11.8501 6.4461C11.849 9.39841 9.4471 11.8004 6.49594 11.8004ZM11.0528 1.88919C9.83661 0.671558 8.2192 0.00069498 6.49594 0C2.94524 0 0.055413 2.88963 0.0539768 6.44139C0.0535135 7.57678 0.350131 8.68492 0.913851 9.66187L0 13L3.4149 12.1042C4.35583 12.6174 5.41519 12.8879 6.49334 12.8883H6.49599C10.0463 12.8883 12.9364 9.99835 12.9378 6.44654C12.9385 4.72529 12.269 3.10679 11.0528 1.88919Z" fill="#FFAC50"/>
</g>
<defs>
<clipPath id="clip0_1_339">
<rect width="13" height="13" fill="white"/>
</clipPath>
</defs>
</svg>
